<svg width="107" height="107" viewBox="0 0 107 107" fill="none" xmlns="http://www.w3.org/2000/svg">
<circle cx="53.5" cy="53.5" r="53.5" fill="#FF4242"/>
<path d="M35.3083 36V25.5H36.9883L38.8483 31.44H38.8783L40.7383 25.5H42.4183V36H41.2783V27.18H41.2483L39.0583 33.96H38.6683L36.4783 27.18H36.4483V36H35.3083ZM51.4391 36L50.7341 33.945H46.4291L45.7841 36H44.4791L47.9591 25.5H49.2641L52.7441 36H51.4391ZM50.3741 32.865L48.6191 27.165H48.5891L46.7741 32.865H50.3741ZM56.23 34.86H57.625C59.905 34.86 61.045 33.485 61.045 30.735C61.045 29.415 60.745 28.405 60.145 27.705C59.555 26.995 58.745 26.64 57.715 26.64H56.23V34.86ZM54.94 36V25.5H57.82C58.42 25.5 58.985 25.605 59.515 25.815C60.055 26.025 60.54 26.335 60.97 26.745C61.41 27.155 61.755 27.705 62.005 28.395C62.265 29.075 62.395 29.855 62.395 30.735C62.395 31.695 62.265 32.53 62.005 33.24C61.745 33.95 61.385 34.5 60.925 34.89C60.465 35.27 59.97 35.55 59.44 35.73C58.92 35.91 58.35 36 57.73 36H54.94ZM65.2359 36V25.5H71.4459V26.64H66.5259V30.045H71.0259V31.155H66.5259V34.86H71.4459V36H65.2359ZM42.1212 58L43.3212 51.1H40.7862L40.9662 50.05H43.5312L43.8012 48.7C43.9112 48.09 44.1212 47.665 44.4312 47.425C44.7412 47.175 45.1462 47.05 45.6462 47.05H47.4312L47.2212 48.175H45.8412C45.5312 48.175 45.3162 48.235 45.1962 48.355C45.0762 48.465 44.9812 48.71 44.9112 49.09L44.7162 50.05H47.5962L47.4012 51.1H44.5662L43.3512 58H42.1212ZM53.0921 57.115C53.8921 57.115 54.5671 56.795 55.1171 56.155C55.6671 55.505 55.9421 54.61 55.9421 53.47C55.9421 52.73 55.7571 52.125 55.3871 51.655C55.0171 51.175 54.5121 50.935 53.8721 50.935C53.0721 50.935 52.3971 51.26 51.8471 51.91C51.2971 52.55 51.0221 53.44 51.0221 54.58C51.0221 55.32 51.2071 55.93 51.5771 56.41C51.9471 56.88 52.4521 57.115 53.0921 57.115ZM53.1071 58.225C52.1171 58.225 51.3171 57.885 50.7071 57.205C50.0971 56.515 49.7921 55.635 49.7921 54.565C49.7921 53.135 50.1871 51.99 50.9771 51.13C51.7771 50.26 52.7421 49.825 53.8721 49.825C54.8721 49.825 55.6721 50.165 56.2721 50.845C56.8821 51.525 57.1871 52.405 57.1871 53.485C57.1871 54.915 56.7871 56.065 55.9871 56.935C55.1971 57.795 54.2371 58.225 53.1071 58.225ZM60.2379 58L61.6329 50.05H62.8329L62.6379 51.205H62.6679C62.9079 50.845 63.2579 50.54 63.7179 50.29C64.1879 50.04 64.6679 49.915 65.1579 49.915C65.7779 49.915 66.2929 50.095 66.7029 50.455C67.1129 50.815 67.3529 51.34 67.4229 52.03L66.0879 52.33C65.9479 51.55 65.4979 51.16 64.7379 51.16C64.1479 51.16 63.6229 51.38 63.1629 51.82C62.7029 52.26 62.4079 52.845 62.2779 53.575L61.4979 58H60.2379ZM25.6874 80V69.5H29.3174C30.2474 69.5 30.9974 69.755 31.5674 70.265C32.1374 70.775 32.4224 71.425 32.4224 72.215C32.4224 73.225 31.9724 73.925 31.0724 74.315V74.36C31.5424 74.51 31.9474 74.805 32.2874 75.245C32.6374 75.685 32.8124 76.235 32.8124 76.895C32.8124 77.875 32.5024 78.64 31.8824 79.19C31.2624 79.73 30.3224 80 29.0624 80H25.6874ZM26.9774 73.94H29.0924C30.4624 73.94 31.1474 73.39 31.1474 72.29C31.1474 71.76 30.9624 71.355 30.5924 71.075C30.2324 70.785 29.7274 70.64 29.0774 70.64H26.9774V73.94ZM26.9774 78.86H28.8974C29.7774 78.86 30.4374 78.705 30.8774 78.395C31.3174 78.085 31.5374 77.585 31.5374 76.895C31.5374 76.225 31.3274 75.75 30.9074 75.47C30.4874 75.19 29.8274 75.05 28.9274 75.05H26.9774V78.86ZM35.7283 80V69.5H39.0583C40.1583 69.5 41.0233 69.765 41.6533 70.295C42.2833 70.825 42.5983 71.6 42.5983 72.62C42.5983 73.46 42.3583 74.135 41.8783 74.645C41.4083 75.155 40.7783 75.48 39.9883 75.62L42.3283 80H40.9333L38.6533 75.71H37.0033V80H35.7283ZM37.0033 74.6H38.9833C39.6833 74.6 40.2483 74.445 40.6783 74.135C41.1083 73.815 41.3233 73.31 41.3233 72.62C41.3233 71.3 40.5333 70.64 38.9533 70.64H37.0033V74.6ZM51.4391 80L50.7341 77.945H46.4291L45.7841 80H44.4791L47.9591 69.5H49.2641L52.7441 80H51.4391ZM50.3741 76.865L48.6191 71.165H48.5891L46.7741 76.865H50.3741ZM55.015 80V69.5H56.32L60.505 77.87H60.535V69.5H61.735V80H60.46L56.245 71.63H56.215V80H55.015ZM65.9859 78.86H67.3809C69.6609 78.86 70.8009 77.485 70.8009 74.735C70.8009 73.415 70.5009 72.405 69.9009 71.705C69.3109 70.995 68.5009 70.64 67.4709 70.64H65.9859V78.86ZM64.6959 80V69.5H67.5759C68.1759 69.5 68.7409 69.605 69.2709 69.815C69.8109 70.025 70.2959 70.335 70.7259 70.745C71.1659 71.155 71.5109 71.705 71.7609 72.395C72.0209 73.075 72.1509 73.855 72.1509 74.735C72.1509 75.695 72.0209 76.53 71.7609 77.24C71.5009 77.95 71.1409 78.5 70.6809 78.89C70.2209 79.27 69.7259 79.55 69.1959 79.73C68.6759 79.91 68.1059 80 67.4859 80H64.6959ZM74.0617 76.385L75.3817 76.13C75.5217 77.15 75.7917 77.895 76.1917 78.365C76.6017 78.825 77.2667 79.055 78.1867 79.055C78.8967 79.055 79.4317 78.88 79.7917 78.53C80.1517 78.18 80.3317 77.75 80.3317 77.24C80.3317 76.69 80.1717 76.265 79.8517 75.965C79.5317 75.655 78.8117 75.295 77.6917 74.885C76.5617 74.475 75.7517 74.065 75.2617 73.655C74.7817 73.235 74.5417 72.67 74.5417 71.96C74.5417 71.19 74.8317 70.55 75.4117 70.04C76.0017 69.53 76.7717 69.275 77.7217 69.275C78.6217 69.275 79.3967 69.525 80.0467 70.025C80.7067 70.515 81.0967 71.23 81.2167 72.17L79.9717 72.44C79.7317 71.12 78.9817 70.46 77.7217 70.46C77.1117 70.46 76.6417 70.605 76.3117 70.895C75.9917 71.175 75.8317 71.53 75.8317 71.96C75.8317 72.34 75.9817 72.66 76.2817 72.92C76.5817 73.18 77.2417 73.495 78.2617 73.865C79.5617 74.345 80.4417 74.805 80.9017 75.245C81.3717 75.685 81.6067 76.33 81.6067 77.18C81.6067 78.04 81.2967 78.765 80.6767 79.355C80.0567 79.935 79.2117 80.225 78.1417 80.225C75.7317 80.225 74.3717 78.945 74.0617 76.385Z" fill="black"/>
</svg>
